<mxfile host="app.diagrams.net" modified="2024-04-02T15:00:11.763Z" agent="Mozilla/5.0 (Windows NT 10.0; Win64; x64) AppleWebKit/537.36 (KHTML, like Gecko) Chrome/123.0.0.0 Safari/537.36" etag="kpqjudTXtMBz_3SC5viF" version="24.2.1" type="github">
  <diagram name="Page-1" id="xPA34kOLngdErvl6GcsT">
    <mxGraphModel dx="1434" dy="738" grid="1" gridSize="10" guides="1" tooltips="1" connect="1" arrows="1" fold="1" page="1" pageScale="1" pageWidth="827" pageHeight="1169" math="0" shadow="0">
      <root>
        <mxCell id="0" />
        <mxCell id="1" parent="0" />
        <mxCell id="Revf6ZD0aTNOWaisv4Qf-1" value="AWS Cloud" style="points=[[0,0],[0.25,0],[0.5,0],[0.75,0],[1,0],[1,0.25],[1,0.5],[1,0.75],[1,1],[0.75,1],[0.5,1],[0.25,1],[0,1],[0,0.75],[0,0.5],[0,0.25]];outlineConnect=0;gradientColor=none;html=1;whiteSpace=wrap;fontSize=12;fontStyle=0;container=1;pointerEvents=0;collapsible=0;recursiveResize=0;shape=mxgraph.aws4.group;grIcon=mxgraph.aws4.group_aws_cloud_alt;strokeColor=#232F3E;fillColor=none;verticalAlign=top;align=left;spacingLeft=30;fontColor=#232F3E;dashed=0;" vertex="1" parent="1">
          <mxGeometry x="40" y="40" width="560" height="600" as="geometry" />
        </mxCell>
        <mxCell id="Revf6ZD0aTNOWaisv4Qf-2" value="S3 Bucket" style="text;html=1;strokeColor=none;fillColor=none;align=center;verticalAlign=middle;whiteSpace=wrap;rounded=0;" vertex="1" parent="Revf6ZD0aTNOWaisv4Qf-1">
          <mxGeometry x="400" y="220" width="78" height="40" as="geometry" />
        </mxCell>
        <mxCell id="Revf6ZD0aTNOWaisv4Qf-3" value="AWS Step Functions workflow" style="points=[[0,0],[0.25,0],[0.5,0],[0.75,0],[1,0],[1,0.25],[1,0.5],[1,0.75],[1,1],[0.75,1],[0.5,1],[0.25,1],[0,1],[0,0.75],[0,0.5],[0,0.25]];outlineConnect=0;gradientColor=none;html=1;whiteSpace=wrap;fontSize=12;fontStyle=0;container=1;pointerEvents=0;collapsible=0;recursiveResize=0;shape=mxgraph.aws4.group;grIcon=mxgraph.aws4.group_aws_step_functions_workflow;strokeColor=#CD2264;fillColor=none;verticalAlign=top;align=left;spacingLeft=30;fontColor=#CD2264;dashed=0;" vertex="1" parent="Revf6ZD0aTNOWaisv4Qf-1">
          <mxGeometry x="40" y="40" width="478" height="520" as="geometry" />
        </mxCell>
        <mxCell id="Revf6ZD0aTNOWaisv4Qf-4" value="" style="sketch=0;points=[[0,0,0],[0.25,0,0],[0.5,0,0],[0.75,0,0],[1,0,0],[0,1,0],[0.25,1,0],[0.5,1,0],[0.75,1,0],[1,1,0],[0,0.25,0],[0,0.5,0],[0,0.75,0],[1,0.25,0],[1,0.5,0],[1,0.75,0]];outlineConnect=0;fontColor=#232F3E;fillColor=#ED7100;strokeColor=#ffffff;dashed=0;verticalLabelPosition=bottom;verticalAlign=top;align=center;html=1;fontSize=12;fontStyle=0;aspect=fixed;shape=mxgraph.aws4.resourceIcon;resIcon=mxgraph.aws4.lambda;" vertex="1" parent="Revf6ZD0aTNOWaisv4Qf-3">
          <mxGeometry x="201" y="102" width="78" height="78" as="geometry" />
        </mxCell>
        <mxCell id="Revf6ZD0aTNOWaisv4Qf-5" value="" style="sketch=0;points=[[0,0,0],[0.25,0,0],[0.5,0,0],[0.75,0,0],[1,0,0],[0,1,0],[0.25,1,0],[0.5,1,0],[0.75,1,0],[1,1,0],[0,0.25,0],[0,0.5,0],[0,0.75,0],[1,0.25,0],[1,0.5,0],[1,0.75,0]];outlineConnect=0;fontColor=#232F3E;fillColor=#7AA116;strokeColor=#ffffff;dashed=0;verticalLabelPosition=bottom;verticalAlign=top;align=center;html=1;fontSize=12;fontStyle=0;aspect=fixed;shape=mxgraph.aws4.resourceIcon;resIcon=mxgraph.aws4.s3;" vertex="1" parent="Revf6ZD0aTNOWaisv4Qf-3">
          <mxGeometry x="360" y="340" width="78" height="78" as="geometry" />
        </mxCell>
        <mxCell id="Revf6ZD0aTNOWaisv4Qf-6" value="Lambda Function" style="text;html=1;strokeColor=none;fillColor=none;align=center;verticalAlign=middle;whiteSpace=wrap;rounded=0;" vertex="1" parent="Revf6ZD0aTNOWaisv4Qf-3">
          <mxGeometry x="200.46" y="180" width="77.08" height="40" as="geometry" />
        </mxCell>
        <mxCell id="Revf6ZD0aTNOWaisv4Qf-7" style="edgeStyle=orthogonalEdgeStyle;rounded=0;orthogonalLoop=1;jettySize=auto;html=1;exitX=0;exitY=0.5;exitDx=0;exitDy=0;exitPerimeter=0;endArrow=none;endFill=0;enumerate=1;enumerateValue=2;" edge="1" parent="Revf6ZD0aTNOWaisv4Qf-3" source="Revf6ZD0aTNOWaisv4Qf-8">
          <mxGeometry relative="1" as="geometry">
            <mxPoint x="160" y="140" as="targetPoint" />
          </mxGeometry>
        </mxCell>
        <mxCell id="Revf6ZD0aTNOWaisv4Qf-8" value="" style="sketch=0;points=[[0,0,0],[0.25,0,0],[0.5,0,0],[0.75,0,0],[1,0,0],[0,1,0],[0.25,1,0],[0.5,1,0],[0.75,1,0],[1,1,0],[0,0.25,0],[0,0.5,0],[0,0.75,0],[1,0.25,0],[1,0.5,0],[1,0.75,0]];outlineConnect=0;fontColor=#232F3E;fillColor=#ED7100;strokeColor=#ffffff;dashed=0;verticalLabelPosition=bottom;verticalAlign=top;align=center;html=1;fontSize=12;fontStyle=0;aspect=fixed;shape=mxgraph.aws4.resourceIcon;resIcon=mxgraph.aws4.lambda;" vertex="1" parent="Revf6ZD0aTNOWaisv4Qf-3">
          <mxGeometry x="200.54000000000002" y="340" width="78" height="78" as="geometry" />
        </mxCell>
        <mxCell id="Revf6ZD0aTNOWaisv4Qf-9" value="" style="edgeStyle=orthogonalEdgeStyle;rounded=0;orthogonalLoop=1;jettySize=auto;html=1;enumerate=1;enumerateValue=1;" edge="1" parent="Revf6ZD0aTNOWaisv4Qf-3" source="Revf6ZD0aTNOWaisv4Qf-10" target="Revf6ZD0aTNOWaisv4Qf-4">
          <mxGeometry relative="1" as="geometry" />
        </mxCell>
        <mxCell id="Revf6ZD0aTNOWaisv4Qf-10" value="" style="sketch=0;points=[[0,0,0],[0.25,0,0],[0.5,0,0],[0.75,0,0],[1,0,0],[0,1,0],[0.25,1,0],[0.5,1,0],[0.75,1,0],[1,1,0],[0,0.25,0],[0,0.5,0],[0,0.75,0],[1,0.25,0],[1,0.5,0],[1,0.75,0]];outlineConnect=0;fontColor=#232F3E;fillColor=#E7157B;strokeColor=#ffffff;dashed=0;verticalLabelPosition=bottom;verticalAlign=top;align=center;html=1;fontSize=12;fontStyle=0;aspect=fixed;shape=mxgraph.aws4.resourceIcon;resIcon=mxgraph.aws4.step_functions;" vertex="1" parent="Revf6ZD0aTNOWaisv4Qf-3">
          <mxGeometry x="40" y="102" width="78" height="78" as="geometry" />
        </mxCell>
        <mxCell id="Revf6ZD0aTNOWaisv4Qf-11" style="edgeStyle=orthogonalEdgeStyle;rounded=0;orthogonalLoop=1;jettySize=auto;html=1;entryX=0;entryY=0.5;entryDx=0;entryDy=0;entryPerimeter=0;fillColor=#d5e8d4;strokeColor=#82b366;enumerate=0;" edge="1" parent="Revf6ZD0aTNOWaisv4Qf-3" target="Revf6ZD0aTNOWaisv4Qf-5">
          <mxGeometry relative="1" as="geometry">
            <mxPoint x="279" y="379" as="sourcePoint" />
            <Array as="points">
              <mxPoint x="279" y="379" />
            </Array>
          </mxGeometry>
        </mxCell>
        <mxCell id="Revf6ZD0aTNOWaisv4Qf-12" value="State&lt;br&gt;Machine" style="text;html=1;strokeColor=none;fillColor=none;align=center;verticalAlign=middle;whiteSpace=wrap;rounded=0;" vertex="1" parent="Revf6ZD0aTNOWaisv4Qf-3">
          <mxGeometry x="40" y="180" width="78" height="40" as="geometry" />
        </mxCell>
        <mxCell id="Revf6ZD0aTNOWaisv4Qf-13" value="" style="sketch=0;points=[[0,0,0],[0.25,0,0],[0.5,0,0],[0.75,0,0],[1,0,0],[0,1,0],[0.25,1,0],[0.5,1,0],[0.75,1,0],[1,1,0],[0,0.25,0],[0,0.5,0],[0,0.75,0],[1,0.25,0],[1,0.5,0],[1,0.75,0]];outlineConnect=0;fontColor=#232F3E;fillColor=#7AA116;strokeColor=#ffffff;dashed=0;verticalLabelPosition=bottom;verticalAlign=top;align=center;html=1;fontSize=12;fontStyle=0;aspect=fixed;shape=mxgraph.aws4.resourceIcon;resIcon=mxgraph.aws4.s3;" vertex="1" parent="Revf6ZD0aTNOWaisv4Qf-3">
          <mxGeometry x="360" y="102" width="78" height="78" as="geometry" />
        </mxCell>
        <mxCell id="Revf6ZD0aTNOWaisv4Qf-14" style="edgeStyle=orthogonalEdgeStyle;rounded=0;orthogonalLoop=1;jettySize=auto;html=1;fillColor=#d5e8d4;strokeColor=#82b366;enumerate=0;" edge="1" parent="Revf6ZD0aTNOWaisv4Qf-3" target="Revf6ZD0aTNOWaisv4Qf-13">
          <mxGeometry relative="1" as="geometry">
            <mxPoint x="279" y="141" as="sourcePoint" />
            <Array as="points">
              <mxPoint x="279" y="141" />
            </Array>
          </mxGeometry>
        </mxCell>
        <mxCell id="Revf6ZD0aTNOWaisv4Qf-15" value="S3 Bucket" style="text;html=1;strokeColor=none;fillColor=none;align=center;verticalAlign=middle;whiteSpace=wrap;rounded=0;" vertex="1" parent="1">
          <mxGeometry x="440" y="499" width="78" height="40" as="geometry" />
        </mxCell>
        <mxCell id="Revf6ZD0aTNOWaisv4Qf-16" value="Lambda Function" style="text;html=1;strokeColor=none;fillColor=none;align=center;verticalAlign=middle;whiteSpace=wrap;rounded=0;" vertex="1" parent="1">
          <mxGeometry x="280" y="499" width="78" height="40" as="geometry" />
        </mxCell>
        <mxCell id="Revf6ZD0aTNOWaisv4Qf-17" value="" style="rounded=0;whiteSpace=wrap;html=1;dashed=1;fillColor=none;strokeColor=#FFFFFF;" vertex="1" parent="1">
          <mxGeometry width="640" height="680" as="geometry" />
        </mxCell>
      </root>
    </mxGraphModel>
  </diagram>
</mxfile>
